<svg id="Layer_1" enable-background="new 0 0 60 60" viewBox="0 0 60 60" xmlns="http://www.w3.org/2000/svg"><path d="m7.5100098 16.1399536v5.3300171h44.9799805v-5.3300171c0-2.1799927-1.7799683-3.9500122-3.960022-3.9500122h-10.209961v-2.2399902c0-2.1799927-1.7700195-3.9499512-3.9500122-3.9499512h-8.3699951c-2.1799927 0-3.9500122 1.7699585-3.9500122 3.9499512v2.2399902h-10.5899658c-2.1800537 0-3.9500122 1.7700195-3.9500122 3.9500122zm16.539978-6.1900024c0-1.0799561.8800049-1.9499512 1.9500122-1.9499512h8.3699951c1.0700073 0 1.9500122.8699951 1.9500122 1.9499512v2.2399902h-12.2700195z"/><path d="m7.5100098 38.4199829c0 2.1799927 1.7699585 3.9500122 3.9500122 3.9500122h37.0699463c2.1800537 0 3.960022-1.7700195 3.960022-3.9500122v-14.9500122h-6.8699951v2.4500122c0 .5499878-.4400024 1-1 1-.5499878 0-1-.4500122-1-1v-2.4500122h-27.25v2.4500122c0 .5499878-.4500122 1-1 1s-1-.4500122-1-1v-2.4500122h-6.8599854z"/><path d="m51.9199829 49.1799927c0-.3699951-.2000122-.7000122-.5200195-.8800049l-6.4099731-3.5426025v8.8259888l6.4099731-3.5333862c.3200073-.1700441.5200195-.5100099.5200195-.8699952z"/><path d="m17.4099731 53.9902954 25.5800171.0093384v-3.8296509h-25.5800171z"/><path d="m17.41 44.35h25.58v3.82h-25.58z"/><path d="m15.4099731 54v-9.6500244h-2.5199585c-2.6600342 0-4.8200073 2.1599731-4.8200073 4.8200073 0 2.6599732 2.1599732 4.8300171 4.8200073 4.8300171z"/></svg>